<mxfile host="app.diagrams.net" agent="Mozilla/5.0 (Windows NT 10.0; Win64; x64) AppleWebKit/537.36 (KHTML, like Gecko) Chrome/130.0.0.0 Safari/537.36" version="24.9.0">
  <diagram name="Страница — 1" id="bRGnwz66bWPC-IWh-9Fs">
    <mxGraphModel dx="1909" dy="1027" grid="1" gridSize="10" guides="1" tooltips="1" connect="1" arrows="1" fold="1" page="1" pageScale="1" pageWidth="1169" pageHeight="827" math="0" shadow="0">
      <root>
        <mxCell id="0" />
        <mxCell id="1" parent="0" />
        <mxCell id="SasF4vDyZKvNwNYj3_zn-50" style="edgeStyle=orthogonalEdgeStyle;rounded=0;orthogonalLoop=1;jettySize=auto;html=1;endArrow=none;endFill=0;" edge="1" parent="1" source="SasF4vDyZKvNwNYj3_zn-4" target="SasF4vDyZKvNwNYj3_zn-13">
          <mxGeometry relative="1" as="geometry" />
        </mxCell>
        <mxCell id="SasF4vDyZKvNwNYj3_zn-4" value="АРМ оператора&amp;nbsp;" style="rounded=1;whiteSpace=wrap;html=1;" vertex="1" parent="1">
          <mxGeometry x="500" y="250" width="120" height="60" as="geometry" />
        </mxCell>
        <mxCell id="SasF4vDyZKvNwNYj3_zn-46" style="edgeStyle=orthogonalEdgeStyle;rounded=0;orthogonalLoop=1;jettySize=auto;html=1;endArrow=none;endFill=0;" edge="1" parent="1" source="SasF4vDyZKvNwNYj3_zn-5">
          <mxGeometry relative="1" as="geometry">
            <mxPoint x="380" y="420.0000000000001" as="targetPoint" />
          </mxGeometry>
        </mxCell>
        <mxCell id="SasF4vDyZKvNwNYj3_zn-47" style="edgeStyle=orthogonalEdgeStyle;rounded=0;orthogonalLoop=1;jettySize=auto;html=1;entryX=0;entryY=0.5;entryDx=0;entryDy=0;endArrow=none;endFill=0;" edge="1" parent="1" source="SasF4vDyZKvNwNYj3_zn-5" target="SasF4vDyZKvNwNYj3_zn-4">
          <mxGeometry relative="1" as="geometry" />
        </mxCell>
        <mxCell id="SasF4vDyZKvNwNYj3_zn-51" style="edgeStyle=orthogonalEdgeStyle;rounded=0;orthogonalLoop=1;jettySize=auto;html=1;entryX=0.5;entryY=1;entryDx=0;entryDy=0;endArrow=none;endFill=0;" edge="1" parent="1" source="SasF4vDyZKvNwNYj3_zn-5" target="SasF4vDyZKvNwNYj3_zn-15">
          <mxGeometry relative="1" as="geometry" />
        </mxCell>
        <mxCell id="SasF4vDyZKvNwNYj3_zn-5" value="Сервер&amp;nbsp;" style="rounded=1;whiteSpace=wrap;html=1;" vertex="1" parent="1">
          <mxGeometry x="340" y="260" width="80" height="40" as="geometry" />
        </mxCell>
        <mxCell id="SasF4vDyZKvNwNYj3_zn-6" value="" style="endArrow=none;html=1;rounded=0;" edge="1" parent="1">
          <mxGeometry width="50" height="50" relative="1" as="geometry">
            <mxPoint x="50" y="420" as="sourcePoint" />
            <mxPoint x="1090" y="420" as="targetPoint" />
          </mxGeometry>
        </mxCell>
        <mxCell id="SasF4vDyZKvNwNYj3_zn-7" value="Локакально-вычислительная сеть" style="edgeLabel;html=1;align=center;verticalAlign=middle;resizable=0;points=[];" vertex="1" connectable="0" parent="SasF4vDyZKvNwNYj3_zn-6">
          <mxGeometry x="0.1456" relative="1" as="geometry">
            <mxPoint x="395" y="-20" as="offset" />
          </mxGeometry>
        </mxCell>
        <mxCell id="SasF4vDyZKvNwNYj3_zn-10" value="Исполнительные механизмы" style="rounded=1;whiteSpace=wrap;html=1;" vertex="1" parent="1">
          <mxGeometry x="112.5" y="710" width="115" height="50" as="geometry" />
        </mxCell>
        <mxCell id="SasF4vDyZKvNwNYj3_zn-11" value="Датчики" style="rounded=1;whiteSpace=wrap;html=1;" vertex="1" parent="1">
          <mxGeometry x="257.5" y="710" width="115" height="50" as="geometry" />
        </mxCell>
        <mxCell id="SasF4vDyZKvNwNYj3_zn-27" style="edgeStyle=orthogonalEdgeStyle;rounded=0;orthogonalLoop=1;jettySize=auto;html=1;entryX=0.5;entryY=0;entryDx=0;entryDy=0;endArrow=none;endFill=0;" edge="1" parent="1" source="SasF4vDyZKvNwNYj3_zn-12" target="SasF4vDyZKvNwNYj3_zn-10">
          <mxGeometry relative="1" as="geometry" />
        </mxCell>
        <mxCell id="SasF4vDyZKvNwNYj3_zn-28" style="edgeStyle=orthogonalEdgeStyle;rounded=0;orthogonalLoop=1;jettySize=auto;html=1;entryX=0.5;entryY=0;entryDx=0;entryDy=0;endArrow=none;endFill=0;" edge="1" parent="1" source="SasF4vDyZKvNwNYj3_zn-12" target="SasF4vDyZKvNwNYj3_zn-11">
          <mxGeometry relative="1" as="geometry" />
        </mxCell>
        <mxCell id="SasF4vDyZKvNwNYj3_zn-12" value="PLC" style="rounded=1;whiteSpace=wrap;html=1;" vertex="1" parent="1">
          <mxGeometry x="120" y="540" width="100" height="50" as="geometry" />
        </mxCell>
        <mxCell id="SasF4vDyZKvNwNYj3_zn-13" value="Видеомонитор" style="rounded=1;whiteSpace=wrap;html=1;" vertex="1" parent="1">
          <mxGeometry x="500" y="120" width="120" height="60" as="geometry" />
        </mxCell>
        <mxCell id="SasF4vDyZKvNwNYj3_zn-21" style="edgeStyle=orthogonalEdgeStyle;rounded=0;orthogonalLoop=1;jettySize=auto;html=1;curved=0;endArrow=none;endFill=0;" edge="1" parent="1" source="SasF4vDyZKvNwNYj3_zn-14">
          <mxGeometry relative="1" as="geometry">
            <mxPoint x="315" y="420" as="targetPoint" />
          </mxGeometry>
        </mxCell>
        <mxCell id="SasF4vDyZKvNwNYj3_zn-25" style="edgeStyle=orthogonalEdgeStyle;rounded=0;orthogonalLoop=1;jettySize=auto;html=1;entryX=0.5;entryY=0;entryDx=0;entryDy=0;endArrow=none;endFill=0;" edge="1" parent="1" source="SasF4vDyZKvNwNYj3_zn-14" target="SasF4vDyZKvNwNYj3_zn-12">
          <mxGeometry relative="1" as="geometry" />
        </mxCell>
        <mxCell id="SasF4vDyZKvNwNYj3_zn-14" value="Локальный шкаф управления" style="rounded=1;whiteSpace=wrap;html=1;" vertex="1" parent="1">
          <mxGeometry x="260" y="450" width="110" height="60" as="geometry" />
        </mxCell>
        <mxCell id="SasF4vDyZKvNwNYj3_zn-15" value="СУБД" style="rounded=1;whiteSpace=wrap;html=1;" vertex="1" parent="1">
          <mxGeometry x="335" y="120" width="90" height="40" as="geometry" />
        </mxCell>
        <mxCell id="SasF4vDyZKvNwNYj3_zn-29" value="Исполнительные механизмы" style="rounded=1;whiteSpace=wrap;html=1;" vertex="1" parent="1">
          <mxGeometry x="440" y="710" width="115" height="50" as="geometry" />
        </mxCell>
        <mxCell id="SasF4vDyZKvNwNYj3_zn-30" value="Датчики" style="rounded=1;whiteSpace=wrap;html=1;" vertex="1" parent="1">
          <mxGeometry x="585" y="710" width="115" height="50" as="geometry" />
        </mxCell>
        <mxCell id="SasF4vDyZKvNwNYj3_zn-31" style="edgeStyle=orthogonalEdgeStyle;rounded=0;orthogonalLoop=1;jettySize=auto;html=1;entryX=0.5;entryY=0;entryDx=0;entryDy=0;endArrow=none;endFill=0;" edge="1" parent="1" source="SasF4vDyZKvNwNYj3_zn-33" target="SasF4vDyZKvNwNYj3_zn-29">
          <mxGeometry relative="1" as="geometry" />
        </mxCell>
        <mxCell id="SasF4vDyZKvNwNYj3_zn-32" style="edgeStyle=orthogonalEdgeStyle;rounded=0;orthogonalLoop=1;jettySize=auto;html=1;entryX=0.5;entryY=0;entryDx=0;entryDy=0;endArrow=none;endFill=0;" edge="1" parent="1" source="SasF4vDyZKvNwNYj3_zn-33" target="SasF4vDyZKvNwNYj3_zn-30">
          <mxGeometry relative="1" as="geometry" />
        </mxCell>
        <mxCell id="SasF4vDyZKvNwNYj3_zn-33" value="PLC" style="rounded=1;whiteSpace=wrap;html=1;" vertex="1" parent="1">
          <mxGeometry x="447.5" y="540" width="100" height="50" as="geometry" />
        </mxCell>
        <mxCell id="SasF4vDyZKvNwNYj3_zn-34" style="edgeStyle=orthogonalEdgeStyle;rounded=0;orthogonalLoop=1;jettySize=auto;html=1;curved=0;endArrow=none;endFill=0;" edge="1" parent="1" source="SasF4vDyZKvNwNYj3_zn-36">
          <mxGeometry relative="1" as="geometry">
            <mxPoint x="642.5" y="420" as="targetPoint" />
          </mxGeometry>
        </mxCell>
        <mxCell id="SasF4vDyZKvNwNYj3_zn-35" style="edgeStyle=orthogonalEdgeStyle;rounded=0;orthogonalLoop=1;jettySize=auto;html=1;entryX=0.5;entryY=0;entryDx=0;entryDy=0;endArrow=none;endFill=0;" edge="1" parent="1" source="SasF4vDyZKvNwNYj3_zn-36" target="SasF4vDyZKvNwNYj3_zn-33">
          <mxGeometry relative="1" as="geometry" />
        </mxCell>
        <mxCell id="SasF4vDyZKvNwNYj3_zn-36" value="Локальный шкаф управления" style="rounded=1;whiteSpace=wrap;html=1;" vertex="1" parent="1">
          <mxGeometry x="587.5" y="450" width="110" height="60" as="geometry" />
        </mxCell>
        <mxCell id="SasF4vDyZKvNwNYj3_zn-37" value="Исполнительные механизмы" style="rounded=1;whiteSpace=wrap;html=1;" vertex="1" parent="1">
          <mxGeometry x="770" y="710" width="115" height="50" as="geometry" />
        </mxCell>
        <mxCell id="SasF4vDyZKvNwNYj3_zn-38" value="Датчики" style="rounded=1;whiteSpace=wrap;html=1;" vertex="1" parent="1">
          <mxGeometry x="915" y="710" width="115" height="50" as="geometry" />
        </mxCell>
        <mxCell id="SasF4vDyZKvNwNYj3_zn-39" style="edgeStyle=orthogonalEdgeStyle;rounded=0;orthogonalLoop=1;jettySize=auto;html=1;entryX=0.5;entryY=0;entryDx=0;entryDy=0;endArrow=none;endFill=0;" edge="1" parent="1" source="SasF4vDyZKvNwNYj3_zn-41" target="SasF4vDyZKvNwNYj3_zn-37">
          <mxGeometry relative="1" as="geometry" />
        </mxCell>
        <mxCell id="SasF4vDyZKvNwNYj3_zn-40" style="edgeStyle=orthogonalEdgeStyle;rounded=0;orthogonalLoop=1;jettySize=auto;html=1;entryX=0.5;entryY=0;entryDx=0;entryDy=0;endArrow=none;endFill=0;" edge="1" parent="1" source="SasF4vDyZKvNwNYj3_zn-41" target="SasF4vDyZKvNwNYj3_zn-38">
          <mxGeometry relative="1" as="geometry" />
        </mxCell>
        <mxCell id="SasF4vDyZKvNwNYj3_zn-41" value="PLC" style="rounded=1;whiteSpace=wrap;html=1;" vertex="1" parent="1">
          <mxGeometry x="777.5" y="540" width="100" height="50" as="geometry" />
        </mxCell>
        <mxCell id="SasF4vDyZKvNwNYj3_zn-42" style="edgeStyle=orthogonalEdgeStyle;rounded=0;orthogonalLoop=1;jettySize=auto;html=1;curved=0;endArrow=none;endFill=0;" edge="1" parent="1" source="SasF4vDyZKvNwNYj3_zn-44">
          <mxGeometry relative="1" as="geometry">
            <mxPoint x="972.5" y="420" as="targetPoint" />
          </mxGeometry>
        </mxCell>
        <mxCell id="SasF4vDyZKvNwNYj3_zn-43" style="edgeStyle=orthogonalEdgeStyle;rounded=0;orthogonalLoop=1;jettySize=auto;html=1;entryX=0.5;entryY=0;entryDx=0;entryDy=0;endArrow=none;endFill=0;" edge="1" parent="1" source="SasF4vDyZKvNwNYj3_zn-44" target="SasF4vDyZKvNwNYj3_zn-41">
          <mxGeometry relative="1" as="geometry" />
        </mxCell>
        <mxCell id="SasF4vDyZKvNwNYj3_zn-44" value="Локальный шкаф управления" style="rounded=1;whiteSpace=wrap;html=1;" vertex="1" parent="1">
          <mxGeometry x="917.5" y="450" width="110" height="60" as="geometry" />
        </mxCell>
      </root>
    </mxGraphModel>
  </diagram>
</mxfile>
